<?xml version="1.0" encoding="UTF-8" standalone="no"?>
<svg width="512" height="512" viewBox="0 0 512 512" fill="none" xmlns="http://www.w3.org/2000/svg">
  <!-- Background -->
  <rect width="512" height="512" rx="70" fill="#2563EB"/>

  <!-- Single, simple B letter with no outlines -->
  <path d="M150 120H320C355 120 385 150 385 185C385 210 370 230 350 240C370 250 385 270 385 295C385 330 355 360 320 360H150V120Z" fill="white"/>

  <!-- Inner parts of B - made simpler -->
  <path d="M210 210H320C330 210 340 200 340 185C340 170 330 160 320 160H210V210Z" fill="#2563EB"/>
  <path d="M210 320H320C330 320 340 310 340 295C340 280 330 270 320 270H210V320Z" fill="#2563EB"/>
</svg>